<svg width="32" height="32" viewBox="0 0 32 32" fill="none" xmlns="http://www.w3.org/2000/svg">
<g clip-path="url(#clip0_579_120)">
<g clip-path="url(#clip1_579_120)">
<path d="M6.34708 32.0003H25.6503C26.799 32.0003 27.7552 31.1217 27.7552 30.0421V6.6288C27.7552 5.5489 26.799 4.66113 25.6503 4.66113H22.4683V6.4489C22.4729 6.75923 22.2281 7.01602 21.918 7.02635H10.0416C9.72534 7.01874 9.4699 6.76521 9.45958 6.4489V4.66113H6.34708C5.19844 4.66113 4.24219 5.5489 4.24219 6.6288V30.0421C4.24219 31.1217 5.19844 32.0003 6.34708 32.0003ZM10.6422 14.0524C10.6422 13.7451 10.8914 13.4959 11.1987 13.4959H14.0509V10.6437C14.0509 10.3364 14.3001 10.0872 14.6074 10.0872H17.39C17.6973 10.0872 17.9465 10.3364 17.9465 10.6437V13.4959H20.7987C21.106 13.4959 21.3552 13.7451 21.3552 14.0524V16.835C21.3552 17.1424 21.106 17.3916 20.7987 17.3916H17.9465V20.2437C17.9465 20.5511 17.6973 20.8003 17.39 20.8003H14.6074C14.3001 20.8003 14.0509 20.5511 14.0509 20.2437V17.3916H11.1987C10.8914 17.3916 10.6422 17.1424 10.6422 16.835V14.0524ZM10.8688 23.6524H21.1286C21.4362 23.6524 21.6851 23.9016 21.6851 24.209C21.6851 24.5163 21.4362 24.7655 21.1286 24.7655H10.8688C10.5612 24.7655 10.3123 24.5163 10.3123 24.209C10.3123 23.9016 10.5612 23.6524 10.8688 23.6524ZM8.78186 26.435H23.2156C23.5232 26.435 23.7721 26.6842 23.7721 26.9916C23.7721 27.2989 23.5232 27.5481 23.2156 27.5481H8.78186C8.47425 27.5481 8.22534 27.2989 8.22534 26.9916C8.22534 26.6842 8.47425 26.435 8.78186 26.435Z" fill="white"/>
<path d="M21.3568 2.15652H18.7525C18.4905 2.15625 18.2639 1.97337 18.2087 1.71712C17.9935 0.722556 17.0489 1.23676e-06 15.9625 1.23676e-06H15.9557C14.8984 -0.00108572 13.9748 0.714403 13.7117 1.73832C13.6484 1.98424 13.4267 2.15625 13.1726 2.15652H10.5742V5.91304H21.3568V2.15652Z" fill="white"/>
<path d="M15.1665 16.835V19.6872H16.8361V16.835C16.8361 16.5276 17.0853 16.2785 17.3926 16.2785H20.2448V14.6089H17.3926C17.0853 14.6089 16.8361 14.3597 16.8361 14.0524V11.2002H15.1665V14.0524C15.1665 14.3597 14.9173 14.6089 14.61 14.6089H11.7578V16.2785H14.61C14.9173 16.2785 15.1665 16.5276 15.1665 16.835Z" fill="white"/>
</g>
</g>
<defs>
<clipPath id="clip0_579_120">
<rect width="32" height="32" fill="white"/>
</clipPath>
<clipPath id="clip1_579_120">
<rect width="32" height="32" fill="white"/>
</clipPath>
</defs>
</svg>
