<svg width="53" height="53" viewBox="0 0 53 53" fill="none" xmlns="http://www.w3.org/2000/svg">
<path d="M26.5953 52.5913C19.6178 52.5835 12.9283 49.8117 7.9944 44.8841C3.06053 39.9565 0.28521 33.2755 0.277344 26.3069C0.28521 19.3382 3.06053 12.6573 7.9944 7.72969C12.9283 2.8021 19.6178 0.0303174 26.5953 0.0224609C33.5729 0.0303174 40.2624 2.8021 45.1963 7.72969C50.1301 12.6573 52.9054 19.3382 52.9133 26.3069C52.9054 33.2755 50.1301 39.9565 45.1963 44.8841C40.2624 49.8117 33.5729 52.5835 26.5953 52.5913ZM26.5953 2.30803C20.2235 2.31392 14.1141 4.84403 9.60782 9.3432C5.10152 13.8424 2.56631 19.9431 2.55844 26.3069C2.5663 32.6693 5.1005 38.769 9.60519 43.268C14.1099 47.7669 20.2173 50.2979 26.5879 50.3058C32.9585 50.2979 39.0659 47.7669 43.5706 43.268C48.0753 38.769 50.6095 32.6693 50.6174 26.3069C50.6095 19.9457 48.0763 13.8472 43.5732 9.34846C39.0702 4.84971 32.9646 2.31785 26.5953 2.30803Z" fill="#6A1AB7"/>
</svg>
