<svg width="32" height="32" viewBox="0 0 32 32" fill="none" xmlns="http://www.w3.org/2000/svg">
<g clip-path="url(#clip0_579_100)">
<path d="M15.9909 4.218C9.01587 -1.88266 0.14723 3.47755 0.00180337 10.7442C-0.0352563 12.5961 0.499328 14.4 1.56343 16.0631H8.46066L9.68744 14.0184C10.0437 13.4247 10.9057 13.4056 11.2821 13.9974L13.8705 18.0648L17.6435 10.0997C17.9726 9.40473 18.9532 9.38267 19.3161 10.0566L22.5503 16.0631H30.4184C36.2468 6.95379 24.7279 -3.42361 15.9909 4.218Z" fill="white"/>
<path d="M21.1656 17.4453L18.5448 12.5781L14.8387 20.4019C14.5234 21.0675 13.5961 21.1253 13.2007 20.5039L10.5152 16.284L9.79574 17.4832C9.62631 17.7655 9.32121 17.9383 8.99192 17.9383H3.04688C3.23324 18.1333 2.24 17.1421 15.3302 30.1645C15.6958 30.5283 16.2868 30.5283 16.6525 30.1645C29.5412 17.3424 28.7498 18.133 28.9358 17.9383H21.9909C21.646 17.9383 21.329 17.749 21.1656 17.4453Z" fill="white"/>
</g>
<defs>
<clipPath id="clip0_579_100">
<rect width="32" height="32" fill="white"/>
</clipPath>
</defs>
</svg>
