<svg width="24" height="26" viewBox="0 0 24 26" fill="none" xmlns="http://www.w3.org/2000/svg">
<g clip-path="url(#clip0_580_297)">
<path fill-rule="evenodd" clip-rule="evenodd" d="M-0.91875 5.71667C-0.75492 4.9804 -0.352185 4.32302 0.223498 3.85218C0.79918 3.38134 1.51369 3.12495 2.25 3.125H21.75C22.4863 3.12495 23.2008 3.38134 23.7765 3.85218C24.3522 4.32302 24.7549 4.9804 24.9187 5.71667L12 13.815L-0.91875 5.71667ZM-1 7.62V19.46L8.42988 13.53L-1 7.62ZM9.98663 14.5083L-0.689625 21.22C-0.425844 21.7905 -0.00951922 22.2724 0.510895 22.6096C1.03131 22.9469 1.63441 23.1256 2.25 23.125H21.75C22.3655 23.1251 22.9684 22.946 23.4885 22.6085C24.0086 22.2709 24.4246 21.7889 24.688 21.2183L14.0118 14.5067L12 15.7683L9.98663 14.5067V14.5083ZM15.5701 13.5317L25 19.46V7.62L15.5701 13.53V13.5317Z" fill="#FF685B"/>
</g>
<defs>
<clipPath id="clip0_580_297">
<rect width="24" height="26" fill="white"/>
</clipPath>
</defs>
</svg>
