<svg width="24" height="24" viewBox="0 0 24 24" fill="none" xmlns="http://www.w3.org/2000/svg">
<path d="M18.8498 12.3517C18.7385 12.2402 18.6062 12.1517 18.4606 12.0913C18.3151 12.031 18.159 11.9999 18.0014 11.9999C17.8438 11.9999 17.6878 12.031 17.5422 12.0913C17.3966 12.1517 17.2644 12.2402 17.153 12.3517L15.2402 14.2645C14.3534 14.0005 12.6987 13.4005 11.6499 12.3517C10.6011 11.3029 10.0011 9.64814 9.73709 8.76135L11.6499 6.84857C11.7614 6.73723 11.8499 6.60498 11.9103 6.45941C11.9706 6.31383 12.0017 6.15778 12.0017 6.00018C12.0017 5.84258 11.9706 5.68653 11.9103 5.54095C11.8499 5.39538 11.7614 5.26313 11.6499 5.15179L6.84992 0.351838C6.73857 0.240304 6.60633 0.151819 6.46075 0.0914472C6.31518 0.031075 6.15912 0 6.00152 0C5.84393 0 5.68787 0.031075 5.5423 0.0914472C5.39672 0.151819 5.26448 0.240304 5.15313 0.351838L1.89877 3.60621C1.44277 4.0622 1.18597 4.68859 1.19557 5.32819C1.22317 7.03697 1.67557 12.9721 6.35312 17.6497C11.0307 22.3272 16.9658 22.7784 18.6758 22.8072H18.7094C19.343 22.8072 19.9418 22.5576 20.3954 22.104L23.6497 18.8497C23.7613 18.7383 23.8498 18.6061 23.9101 18.4605C23.9705 18.3149 24.0016 18.1589 24.0016 18.0013C24.0016 17.8437 23.9705 17.6876 23.9101 17.542C23.8498 17.3965 23.7613 17.2642 23.6497 17.1529L18.8498 12.3517ZM18.6974 20.406C17.1998 20.3808 12.0759 19.9788 8.0499 15.9517C4.01074 11.9125 3.61955 6.77057 3.59555 5.30299L6.00152 2.89701L9.10469 6.00018L7.55311 7.55177C7.41206 7.6927 7.30836 7.86657 7.25138 8.05764C7.19439 8.24872 7.18591 8.45098 7.22671 8.64615C7.25551 8.78415 7.95991 12.0565 9.95189 14.0485C11.9439 16.0405 15.2162 16.7449 15.3542 16.7737C15.5493 16.8156 15.7518 16.8078 15.943 16.751C16.1343 16.6942 16.3081 16.5901 16.4486 16.4485L18.0014 14.8969L21.1046 18.0001L18.6974 20.406Z" fill="#FF685B"/>
</svg>
