<svg width="631" height="444" viewBox="0 0 631 444" fill="none" xmlns="http://www.w3.org/2000/svg">
<path d="M314.143 443.775C310.292 443.772 306.447 443.452 302.649 442.817C267.779 436.992 247.212 408.511 225.433 378.36C210.127 357.174 194.301 335.26 173.02 321.829C152.587 308.931 128.075 304.561 104.365 300.308C91.4509 298.008 78.0988 295.626 65.4302 291.901C27.1792 280.651 -7.88427 246.448 2.16888 210.821C9.88892 183.468 40.0038 170.37 57.2643 164.998C64.1522 162.853 71.2926 161.035 78.2028 159.276C94.7871 155.054 111.936 150.69 126.499 141.526C147.304 128.421 160.85 106.9 173.942 86.0923C181.372 74.2191 189.092 62.0118 198.112 51.2665C224.995 19.2458 268.47 0.129883 314.418 0.129883C353.011 0.129883 388.587 13.2275 414.601 37.0112C425.947 47.4003 435.985 59.7559 445.696 71.7183C464.116 94.4036 481.51 115.835 507.494 125.794C521.292 131.085 536.42 132.406 551.042 133.689C558.198 134.32 565.598 134.966 572.798 136.071C588.929 138.542 617.506 146.282 627.73 170.333C640.265 199.831 614.542 234.286 582.643 247.962C569.566 253.565 555.508 257.149 541.903 260.577C524.204 265.082 505.896 269.742 489.891 278.899C460.319 295.848 441.639 326.029 423.569 355.222C418.821 362.895 413.91 370.806 408.887 378.375C395.802 398.092 360.404 443.775 314.143 443.775ZM314.381 2.44517C269.109 2.44517 226.281 21.2568 199.829 52.7655C190.912 63.3921 183.252 75.5697 175.844 87.3391C162.618 108.362 148.946 130.105 127.681 143.485C112.82 152.835 95.5004 157.25 78.7378 161.517C71.8573 163.269 64.7466 165.079 57.933 167.209C41.1109 172.448 11.7911 185.16 4.36082 211.474C-5.29853 245.758 28.8807 278.796 66.032 289.741C78.5817 293.452 91.8745 295.804 104.729 298.09C128.654 302.357 153.397 306.764 174.209 319.899C195.868 333.576 211.829 355.667 227.261 377.039C248.757 406.797 269.057 434.922 302.998 440.576C306.681 441.192 310.409 441.502 314.143 441.504C359.297 441.504 394.1 396.534 406.97 377.195C411.97 369.685 416.874 361.76 421.615 354.102C439.834 324.671 458.669 294.231 488.747 277C504.997 267.687 523.454 262.989 541.309 258.448C554.825 255.004 568.801 251.45 581.715 245.914C612.602 232.675 637.605 199.527 625.598 171.283C615.448 147.396 585.029 140.323 572.427 138.387C565.301 137.296 557.938 136.65 550.82 136.027C536.033 134.728 520.749 133.385 506.647 127.983C480.083 117.801 461.686 95.1383 443.891 73.2098C434.231 61.3366 424.245 49.0106 413.025 38.7476C387.435 15.3202 352.402 2.45259 314.381 2.45259V2.44517Z" fill="#6A1AB7"/>
</svg>
