<svg width="32" height="32" viewBox="0 0 32 32" fill="none" xmlns="http://www.w3.org/2000/svg">
<g clip-path="url(#clip0_579_110)">
<path d="M10.25 20.5884V23.5C10.25 28.1527 14.0348 32 18.6875 32C23.3402 32 27.125 28.1527 27.125 23.5V22.4676C29.262 22.0321 30.875 20.1385 30.875 17.875C30.875 15.2904 28.7721 13.1875 26.1875 13.1875C23.603 13.1875 21.5 15.2904 21.5 17.875C21.5 20.1385 23.1131 22.0321 25.25 22.4676V23.5C25.25 27.1182 22.3057 30.125 18.6875 30.125C15.0693 30.125 12.125 27.1182 12.125 23.5V20.5896C15.9511 19.8877 20.3667 15.1368 21.1311 10.6176C21.6323 7.64925 20.3938 5.273 17.75 4.08444V2.8125C17.75 1.26163 16.4884 0 14.9375 0C13.3866 0 12.125 1.26163 12.125 2.8125C12.125 4.36337 13.3866 5.625 14.9375 5.625H16.602C18.7591 6.42369 19.6658 8.03569 19.2817 10.3054C18.6234 14.201 14.2362 18.8125 11.1875 18.8125C7.77295 18.8125 3.02708 13.3901 2.99833 9.375C2.98551 7.58531 3.9232 6.30206 5.74789 5.625H7.43751C8.98839 5.625 10.25 4.36337 10.25 2.8125C10.25 1.26163 8.98845 0 7.43751 0C5.88658 0 4.62501 1.26163 4.62501 2.8125V4.074C2.36983 5.08387 1.12014 6.97625 1.12501 9.375C1.13458 14.0759 6.00508 19.802 10.25 20.5884ZM25.25 16.9375H27.125V18.8125H25.25V16.9375Z" fill="white"/>
</g>
<defs>
<clipPath id="clip0_579_110">
<rect width="32" height="32" fill="white"/>
</clipPath>
</defs>
</svg>
